{
    "asset" : {
        "generator" : "Khronos glTF Blender I/O v0.9.36",
        "version" : "2.0"
    },
    "scene" : 0,
    "scenes" : [
        {
            "name" : "Scene",
            "nodes" : [
                0,
                1,
                2,
                3,
                4,
                5,
                6,
                7,
                8,
                9,
                10,
                11
            ]
        }
    ],
    "nodes" : [
        {
            "name" : "Light",
            "rotation" : [
                0.16907575726509094,
                0.7558803558349609,
                -0.27217137813568115,
                0.570947527885437
            ],
            "translation" : [
                4.076245307922363,
                5.903861999511719,
                -1.0054539442062378
            ]
        },
        {
            "name" : "Camera",
            "rotation" : [
                0.483536034822464,
                0.33687159419059753,
                -0.20870360732078552,
                0.7804827094078064
            ],
            "translation" : [
                7.358891487121582,
                4.958309173583984,
                6.925790786743164
            ]
        },
        {
            "name" : "Light.001",
            "rotation" : [
                0.5232754945755005,
                0.34203392267227173,
                -0.7269423604011536,
                0.284166157245636
            ],
            "translation" : [
                4.076245307922363,
                5.903862476348877,
                -1.0054532289505005
            ]
        },
        {
            "name" : "Camera.001",
            "rotation" : [
                0.8937963247299194,
                0.09062855690717697,
                -0.3857799172401428,
                0.20997287333011627
            ],
            "translation" : [
                7.358891487121582,
                4.958308696746826,
                6.925792217254639
            ]
        },
        {
            "name" : "Air Conditioner 2 ",
            "rotation" : [
                1,
                0,
                0,
                -1.3435885648505064e-07
            ]
        },
        {
            "name" : "Light.002",
            "rotation" : [
                0.5232754945755005,
                0.34203392267227173,
                -0.7269423604011536,
                0.284166157245636
            ],
            "translation" : [
                4.076245307922363,
                5.903862476348877,
                -1.0054532289505005
            ]
        },
        {
            "name" : "Camera.002",
            "rotation" : [
                0.8937963247299194,
                0.09062855690717697,
                -0.3857799172401428,
                0.20997287333011627
            ],
            "translation" : [
                7.358891487121582,
                4.958308696746826,
                6.925792217254639
            ]
        },
        {
            "name" : "Air Conditioner 2 .001",
            "rotation" : [
                1,
                0,
                0,
                -1.3435885648505064e-07
            ]
        },
        {
            "name" : "Light.003",
            "rotation" : [
                0.5232754945755005,
                0.34203392267227173,
                -0.7269423604011536,
                0.284166157245636
            ],
            "translation" : [
                4.076245307922363,
                5.903862476348877,
                -1.0054532289505005
            ]
        },
        {
            "name" : "Camera.003",
            "rotation" : [
                0.8937963247299194,
                0.09062855690717697,
                -0.3857799172401428,
                0.20997287333011627
            ],
            "translation" : [
                7.358891487121582,
                4.958308696746826,
                6.925792217254639
            ]
        },
        {
            "name" : "Air Conditioner 2 .002",
            "rotation" : [
                1,
                0,
                0,
                -1.3435885648505064e-07
            ]
        },
        {
            "mesh" : 0,
            "name" : "Stove_1301",
            "rotation" : [
                0.7071068286895752,
                0,
                0,
                0.7071067094802856
            ],
            "scale" : [
                0.07103167474269867,
                0.03626955300569534,
                0.030616069212555885
            ]
        }
    ],
    "materials" : [
        {
            "doubleSided" : true,
            "name" : "01___Default",
            "pbrMetallicRoughness" : {
                "baseColorFactor" : [
                    0.22750000655651093,
                    0.45489999651908875,
                    0.5881999731063843,
                    1
                ],
                "metallicFactor" : 0,
                "roughnessFactor" : 0.8945907354354858
            }
        },
        {
            "doubleSided" : true,
            "name" : "02___Default",
            "pbrMetallicRoughness" : {
                "baseColorFactor" : [
                    0.20389999449253082,
                    0.20389999449253082,
                    0.20389999449253082,
                    1
                ],
                "metallicFactor" : 0,
                "roughnessFactor" : 0.8945907354354858
            }
        },
        {
            "doubleSided" : true,
            "name" : "03___Default",
            "pbrMetallicRoughness" : {
                "baseColorFactor" : [
                    0.007799999788403511,
                    0.007799999788403511,
                    0.007799999788403511,
                    1
                ],
                "metallicFactor" : 0,
                "roughnessFactor" : 0.8945907354354858
            }
        },
        {
            "doubleSided" : true,
            "name" : "05___Default",
            "pbrMetallicRoughness" : {
                "baseColorFactor" : [
                    0.050999999046325684,
                    0.04309999942779541,
                    0.04309999942779541,
                    1
                ],
                "metallicFactor" : 0,
                "roughnessFactor" : 0.8945907354354858
            }
        },
        {
            "doubleSided" : true,
            "name" : "04___Default",
            "pbrMetallicRoughness" : {
                "baseColorFactor" : [
                    1,
                    1,
                    1,
                    1
                ],
                "metallicFactor" : 0,
                "roughnessFactor" : 0.8945907354354858
            }
        }
    ],
    "meshes" : [
        {
            "name" : "Stove_1301",
            "primitives" : [
                {
                    "attributes" : {
                        "POSITION" : 0,
                        "NORMAL" : 1,
                        "TEXCOORD_0" : 2
                    },
                    "indices" : 3,
                    "material" : 0
                },
                {
                    "attributes" : {
                        "POSITION" : 4,
                        "NORMAL" : 5,
                        "TEXCOORD_0" : 6
                    },
                    "indices" : 7,
                    "material" : 1
                },
                {
                    "attributes" : {
                        "POSITION" : 8,
                        "NORMAL" : 9,
                        "TEXCOORD_0" : 10
                    },
                    "indices" : 11,
                    "material" : 2
                },
                {
                    "attributes" : {
                        "POSITION" : 12,
                        "NORMAL" : 13,
                        "TEXCOORD_0" : 14
                    },
                    "indices" : 15,
                    "material" : 3
                },
                {
                    "attributes" : {
                        "POSITION" : 16,
                        "NORMAL" : 17,
                        "TEXCOORD_0" : 18
                    },
                    "indices" : 19,
                    "material" : 4
                }
            ]
        }
    ],
    "accessors" : [
        {
            "bufferView" : 0,
            "componentType" : 5126,
            "count" : 3007,
            "max" : [
                12.94480037689209,
                3.3396999835968018,
                0.060600001364946365
            ],
            "min" : [
                -13.35770034790039,
                -18.101900100708008,
                -32.186798095703125
            ],
            "type" : "VEC3"
        },
        {
            "bufferView" : 1,
            "componentType" : 5126,
            "count" : 3007,
            "type" : "VEC3"
        },
        {
            "bufferView" : 2,
            "componentType" : 5126,
            "count" : 3007,
            "type" : "VEC2"
        },
        {
            "bufferView" : 3,
            "componentType" : 5123,
            "count" : 14562,
            "type" : "SCALAR"
        },
        {
            "bufferView" : 4,
            "componentType" : 5126,
            "count" : 14850,
            "max" : [
                12.94480037689209,
                5.51800012588501,
                -5.168099880218506
            ],
            "min" : [
                -13.422900199890137,
                -14.836899757385254,
                -29.387300491333008
            ],
            "type" : "VEC3"
        },
        {
            "bufferView" : 5,
            "componentType" : 5126,
            "count" : 14850,
            "type" : "VEC3"
        },
        {
            "bufferView" : 6,
            "componentType" : 5126,
            "count" : 14850,
            "type" : "VEC2"
        },
        {
            "bufferView" : 7,
            "componentType" : 5123,
            "count" : 68922,
            "type" : "SCALAR"
        },
        {
            "bufferView" : 8,
            "componentType" : 5126,
            "count" : 13672,
            "max" : [
                8.910099983215332,
                3.3396999835968018,
                -9.888799667358398
            ],
            "min" : [
                -9.226699829101562,
                -15.050000190734863,
                -28.367300033569336
            ],
            "type" : "VEC3"
        },
        {
            "bufferView" : 9,
            "componentType" : 5126,
            "count" : 13672,
            "type" : "VEC3"
        },
        {
            "bufferView" : 10,
            "componentType" : 5126,
            "count" : 13672,
            "type" : "VEC2"
        },
        {
            "bufferView" : 11,
            "componentType" : 5123,
            "count" : 75606,
            "type" : "SCALAR"
        },
        {
            "bufferView" : 12,
            "componentType" : 5126,
            "count" : 92,
            "max" : [
                11.316800117492676,
                2.9096999168395996,
                -27.843599319458008
            ],
            "min" : [
                -11.827400207519531,
                -16.74570083618164,
                -28.846200942993164
            ],
            "type" : "VEC3"
        },
        {
            "bufferView" : 13,
            "componentType" : 5126,
            "count" : 92,
            "type" : "VEC3"
        },
        {
            "bufferView" : 14,
            "componentType" : 5126,
            "count" : 92,
            "type" : "VEC2"
        },
        {
            "bufferView" : 15,
            "componentType" : 5123,
            "count" : 246,
            "type" : "SCALAR"
        },
        {
            "bufferView" : 16,
            "componentType" : 5126,
            "count" : 9511,
            "max" : [
                9.83650016784668,
                4.845600128173828,
                -24.38759994506836
            ],
            "min" : [
                -10.8100004196167,
                2.630500078201294,
                -27.08180046081543
            ],
            "type" : "VEC3"
        },
        {
            "bufferView" : 17,
            "componentType" : 5126,
            "count" : 9511,
            "type" : "VEC3"
        },
        {
            "bufferView" : 18,
            "componentType" : 5126,
            "count" : 9511,
            "type" : "VEC2"
        },
        {
            "bufferView" : 19,
            "componentType" : 5123,
            "count" : 45840,
            "type" : "SCALAR"
        }
    ],
    "bufferViews" : [
        {
            "buffer" : 0,
            "byteLength" : 36084,
            "byteOffset" : 0
        },
        {
            "buffer" : 0,
            "byteLength" : 36084,
            "byteOffset" : 36084
        },
        {
            "buffer" : 0,
            "byteLength" : 24056,
            "byteOffset" : 72168
        },
        {
            "buffer" : 0,
            "byteLength" : 29124,
            "byteOffset" : 96224
        },
        {
            "buffer" : 0,
            "byteLength" : 178200,
            "byteOffset" : 125348
        },
        {
            "buffer" : 0,
            "byteLength" : 178200,
            "byteOffset" : 303548
        },
        {
            "buffer" : 0,
            "byteLength" : 118800,
            "byteOffset" : 481748
        },
        {
            "buffer" : 0,
            "byteLength" : 137844,
            "byteOffset" : 600548
        },
        {
            "buffer" : 0,
            "byteLength" : 164064,
            "byteOffset" : 738392
        },
        {
            "buffer" : 0,
            "byteLength" : 164064,
            "byteOffset" : 902456
        },
        {
            "buffer" : 0,
            "byteLength" : 109376,
            "byteOffset" : 1066520
        },
        {
            "buffer" : 0,
            "byteLength" : 151212,
            "byteOffset" : 1175896
        },
        {
            "buffer" : 0,
            "byteLength" : 1104,
            "byteOffset" : 1327108
        },
        {
            "buffer" : 0,
            "byteLength" : 1104,
            "byteOffset" : 1328212
        },
        {
            "buffer" : 0,
            "byteLength" : 736,
            "byteOffset" : 1329316
        },
        {
            "buffer" : 0,
            "byteLength" : 492,
            "byteOffset" : 1330052
        },
        {
            "buffer" : 0,
            "byteLength" : 114132,
            "byteOffset" : 1330544
        },
        {
            "buffer" : 0,
            "byteLength" : 114132,
            "byteOffset" : 1444676
        },
        {
            "buffer" : 0,
            "byteLength" : 76088,
            "byteOffset" : 1558808
        },
        {
            "buffer" : 0,
            "byteLength" : 91680,
            "byteOffset" : 1634896
        }
    ],
    "buffers" : [
        {
            "byteLength" : 1726576,
            "uri" : "stove01.bin"
        }
    ]
}
