{
    "asset" : {
        "generator" : "Khronos glTF Blender I/O v0.9.36",
        "version" : "2.0"
    },
    "scene" : 0,
    "scenes" : [
        {
            "name" : "Scene",
            "nodes" : [
                0,
                1,
                2,
                3,
                4,
                5,
                6,
                7
            ]
        }
    ],
    "nodes" : [
        {
            "name" : "Light",
            "rotation" : [
                0.16907575726509094,
                0.7558803558349609,
                -0.27217137813568115,
                0.570947527885437
            ],
            "translation" : [
                4.076245307922363,
                5.903861999511719,
                -1.0054539442062378
            ]
        },
        {
            "name" : "Camera",
            "rotation" : [
                0.483536034822464,
                0.33687159419059753,
                -0.20870360732078552,
                0.7804827094078064
            ],
            "translation" : [
                7.358891487121582,
                4.958309173583984,
                6.925790786743164
            ]
        },
        {
            "name" : "Light.001",
            "rotation" : [
                0.5232754945755005,
                0.34203392267227173,
                -0.7269423604011536,
                0.284166157245636
            ],
            "translation" : [
                4.076245307922363,
                5.903862476348877,
                -1.0054532289505005
            ]
        },
        {
            "name" : "Camera.001",
            "rotation" : [
                0.8937963247299194,
                0.09062855690717697,
                -0.3857799172401428,
                0.20997287333011627
            ],
            "translation" : [
                7.358891487121582,
                4.958308696746826,
                6.925792217254639
            ]
        },
        {
            "name" : "Light.002",
            "rotation" : [
                -0.5709477066993713,
                0.2721712291240692,
                0.7558802962303162,
                0.16907566785812378
            ],
            "translation" : [
                4.076245307922363,
                5.903862953186035,
                -1.0054525136947632
            ]
        },
        {
            "name" : "Camera.002",
            "rotation" : [
                -0.7804825901985168,
                0.20870345830917358,
                0.33687177300453186,
                0.4835361838340759
            ],
            "translation" : [
                7.358891487121582,
                4.958308219909668,
                6.925793647766113
            ]
        },
        {
            "name" : "Air Conditioner 2 ",
            "rotation" : [
                -0.7071065902709961,
                0,
                0,
                0.7071069478988647
            ]
        },
        {
            "mesh" : 0,
            "name" : "fireplace",
            "rotation" : [
                0.5,
                0.4999999701976776,
                -0.5000000596046448,
                0.4999999403953552
            ],
            "scale" : [
                0.15122848749160767,
                0.14200587570667267,
                0.12199753522872925
            ],
            "translation" : [
                0,
                0.06744213402271271,
                0
            ]
        }
    ],
    "materials" : [
        {
            "alphaMode" : "BLEND",
            "doubleSided" : true,
            "name" : "lambert5SG.001",
            "pbrMetallicRoughness" : {
                "baseColorFactor" : [
                    0.029999999329447746,
                    0.019999999552965164,
                    0,
                    1
                ],
                "metallicFactor" : 0,
                "roughnessFactor" : 1
            }
        },
        {
            "alphaMode" : "BLEND",
            "doubleSided" : true,
            "name" : "lambert6SG",
            "pbrMetallicRoughness" : {
                "baseColorFactor" : [
                    0.6000000238418579,
                    0.28999999165534973,
                    0.07000000029802322,
                    1
                ],
                "metallicFactor" : 0,
                "roughnessFactor" : 1
            }
        },
        {
            "alphaMode" : "BLEND",
            "doubleSided" : true,
            "name" : "lambert4SG.001",
            "pbrMetallicRoughness" : {
                "baseColorFactor" : [
                    1,
                    1,
                    1,
                    1
                ],
                "metallicFactor" : 0,
                "roughnessFactor" : 1
            }
        },
        {
            "alphaMode" : "BLEND",
            "doubleSided" : true,
            "name" : "lambert3SG.001",
            "pbrMetallicRoughness" : {
                "baseColorFactor" : [
                    0.1899999976158142,
                    0.05999999865889549,
                    0.029999999329447746,
                    1
                ],
                "metallicFactor" : 0,
                "roughnessFactor" : 1
            }
        },
        {
            "alphaMode" : "BLEND",
            "doubleSided" : true,
            "name" : "lambert9SG",
            "pbrMetallicRoughness" : {
                "baseColorFactor" : [
                    1,
                    0.550000011920929,
                    0.10000000149011612,
                    1
                ],
                "metallicFactor" : 0,
                "roughnessFactor" : 1
            }
        },
        {
            "alphaMode" : "BLEND",
            "doubleSided" : true,
            "name" : "lambert8SG",
            "pbrMetallicRoughness" : {
                "baseColorFactor" : [
                    1,
                    0.17000000178813934,
                    0.029999999329447746,
                    1
                ],
                "metallicFactor" : 0,
                "roughnessFactor" : 1
            }
        },
        {
            "alphaMode" : "BLEND",
            "doubleSided" : true,
            "name" : "lambert7SG",
            "pbrMetallicRoughness" : {
                "baseColorFactor" : [
                    0.029999999329447746,
                    0.029999999329447746,
                    0.019999999552965164,
                    1
                ],
                "metallicFactor" : 0,
                "roughnessFactor" : 1
            }
        }
    ],
    "meshes" : [
        {
            "name" : "fireplace",
            "primitives" : [
                {
                    "attributes" : {
                        "POSITION" : 0,
                        "NORMAL" : 1,
                        "TEXCOORD_0" : 2
                    },
                    "indices" : 3,
                    "material" : 0
                },
                {
                    "attributes" : {
                        "POSITION" : 4,
                        "NORMAL" : 5,
                        "TEXCOORD_0" : 6
                    },
                    "indices" : 7,
                    "material" : 1
                },
                {
                    "attributes" : {
                        "POSITION" : 8,
                        "NORMAL" : 9,
                        "TEXCOORD_0" : 10
                    },
                    "indices" : 11,
                    "material" : 2
                },
                {
                    "attributes" : {
                        "POSITION" : 12,
                        "NORMAL" : 13,
                        "TEXCOORD_0" : 14
                    },
                    "indices" : 15,
                    "material" : 3
                },
                {
                    "attributes" : {
                        "POSITION" : 16,
                        "NORMAL" : 17,
                        "TEXCOORD_0" : 18
                    },
                    "indices" : 19,
                    "material" : 4
                },
                {
                    "attributes" : {
                        "POSITION" : 20,
                        "NORMAL" : 21,
                        "TEXCOORD_0" : 22
                    },
                    "indices" : 23,
                    "material" : 5
                },
                {
                    "attributes" : {
                        "POSITION" : 24,
                        "NORMAL" : 25,
                        "TEXCOORD_0" : 26
                    },
                    "indices" : 27,
                    "material" : 6
                }
            ]
        }
    ],
    "accessors" : [
        {
            "bufferView" : 0,
            "componentType" : 5126,
            "count" : 960,
            "max" : [
                1.6779049634933472,
                1.5284069776535034,
                -0.455161988735199
            ],
            "min" : [
                -1.8025890588760376,
                -0.6456260085105896,
                -1.7785320281982422
            ],
            "type" : "VEC3"
        },
        {
            "bufferView" : 1,
            "componentType" : 5126,
            "count" : 960,
            "type" : "VEC3"
        },
        {
            "bufferView" : 2,
            "componentType" : 5126,
            "count" : 960,
            "type" : "VEC2"
        },
        {
            "bufferView" : 3,
            "componentType" : 5123,
            "count" : 1440,
            "type" : "SCALAR"
        },
        {
            "bufferView" : 4,
            "componentType" : 5126,
            "count" : 288,
            "max" : [
                1.6779049634933472,
                1.5284069776535034,
                -0.455161988735199
            ],
            "min" : [
                -1.8025890588760376,
                -0.6456260085105896,
                -1.7785320281982422
            ],
            "type" : "VEC3"
        },
        {
            "bufferView" : 5,
            "componentType" : 5126,
            "count" : 288,
            "type" : "VEC3"
        },
        {
            "bufferView" : 6,
            "componentType" : 5126,
            "count" : 288,
            "type" : "VEC2"
        },
        {
            "bufferView" : 7,
            "componentType" : 5123,
            "count" : 288,
            "type" : "SCALAR"
        },
        {
            "bufferView" : 8,
            "componentType" : 5126,
            "count" : 240,
            "max" : [
                3.9541990756988525,
                1.6152440309524536,
                0.514178991317749
            ],
            "min" : [
                -3.9541990756988525,
                -1.055580973625183,
                -5.815244197845459
            ],
            "type" : "VEC3"
        },
        {
            "bufferView" : 9,
            "componentType" : 5126,
            "count" : 240,
            "type" : "VEC3"
        },
        {
            "bufferView" : 10,
            "componentType" : 5126,
            "count" : 240,
            "type" : "VEC2"
        },
        {
            "bufferView" : 11,
            "componentType" : 5123,
            "count" : 360,
            "type" : "SCALAR"
        },
        {
            "bufferView" : 12,
            "componentType" : 5126,
            "count" : 88,
            "max" : [
                3.6124730110168457,
                1.3924310207366943,
                -0.5075690150260925
            ],
            "min" : [
                -3.6124730110168457,
                -0.8661829829216003,
                -5.356351852416992
            ],
            "type" : "VEC3"
        },
        {
            "bufferView" : 13,
            "componentType" : 5126,
            "count" : 88,
            "type" : "VEC3"
        },
        {
            "bufferView" : 14,
            "componentType" : 5126,
            "count" : 88,
            "type" : "VEC2"
        },
        {
            "bufferView" : 15,
            "componentType" : 5123,
            "count" : 138,
            "type" : "SCALAR"
        },
        {
            "bufferView" : 16,
            "componentType" : 5126,
            "count" : 1120,
            "max" : [
                0.8259249925613403,
                1.1074919700622559,
                0.14976200461387634
            ],
            "min" : [
                -1.1558259725570679,
                -0.12939199805259705,
                -2.6318840980529785
            ],
            "type" : "VEC3"
        },
        {
            "bufferView" : 17,
            "componentType" : 5126,
            "count" : 1120,
            "type" : "VEC3"
        },
        {
            "bufferView" : 18,
            "componentType" : 5126,
            "count" : 1120,
            "type" : "VEC2"
        },
        {
            "bufferView" : 19,
            "componentType" : 5123,
            "count" : 1650,
            "type" : "SCALAR"
        },
        {
            "bufferView" : 20,
            "componentType" : 5126,
            "count" : 1120,
            "max" : [
                1.0793730020523071,
                1.0443240404129028,
                0.13784900307655334
            ],
            "min" : [
                -1.4092750549316406,
                -0.06524299830198288,
                -3.2441940307617188
            ],
            "type" : "VEC3"
        },
        {
            "bufferView" : 21,
            "componentType" : 5126,
            "count" : 1120,
            "type" : "VEC3"
        },
        {
            "bufferView" : 22,
            "componentType" : 5126,
            "count" : 1120,
            "type" : "VEC2"
        },
        {
            "bufferView" : 23,
            "componentType" : 5123,
            "count" : 1650,
            "type" : "SCALAR"
        },
        {
            "bufferView" : 24,
            "componentType" : 5126,
            "count" : 192,
            "max" : [
                1.7434320449829102,
                1.577355980873108,
                -0.49338099360466003
            ],
            "min" : [
                -1.9910839796066284,
                -0.4066599905490875,
                -0.7090650200843811
            ],
            "type" : "VEC3"
        },
        {
            "bufferView" : 25,
            "componentType" : 5126,
            "count" : 192,
            "type" : "VEC3"
        },
        {
            "bufferView" : 26,
            "componentType" : 5126,
            "count" : 192,
            "type" : "VEC2"
        },
        {
            "bufferView" : 27,
            "componentType" : 5123,
            "count" : 288,
            "type" : "SCALAR"
        }
    ],
    "bufferViews" : [
        {
            "buffer" : 0,
            "byteLength" : 11520,
            "byteOffset" : 0
        },
        {
            "buffer" : 0,
            "byteLength" : 11520,
            "byteOffset" : 11520
        },
        {
            "buffer" : 0,
            "byteLength" : 7680,
            "byteOffset" : 23040
        },
        {
            "buffer" : 0,
            "byteLength" : 2880,
            "byteOffset" : 30720
        },
        {
            "buffer" : 0,
            "byteLength" : 3456,
            "byteOffset" : 33600
        },
        {
            "buffer" : 0,
            "byteLength" : 3456,
            "byteOffset" : 37056
        },
        {
            "buffer" : 0,
            "byteLength" : 2304,
            "byteOffset" : 40512
        },
        {
            "buffer" : 0,
            "byteLength" : 576,
            "byteOffset" : 42816
        },
        {
            "buffer" : 0,
            "byteLength" : 2880,
            "byteOffset" : 43392
        },
        {
            "buffer" : 0,
            "byteLength" : 2880,
            "byteOffset" : 46272
        },
        {
            "buffer" : 0,
            "byteLength" : 1920,
            "byteOffset" : 49152
        },
        {
            "buffer" : 0,
            "byteLength" : 720,
            "byteOffset" : 51072
        },
        {
            "buffer" : 0,
            "byteLength" : 1056,
            "byteOffset" : 51792
        },
        {
            "buffer" : 0,
            "byteLength" : 1056,
            "byteOffset" : 52848
        },
        {
            "buffer" : 0,
            "byteLength" : 704,
            "byteOffset" : 53904
        },
        {
            "buffer" : 0,
            "byteLength" : 276,
            "byteOffset" : 54608
        },
        {
            "buffer" : 0,
            "byteLength" : 13440,
            "byteOffset" : 54884
        },
        {
            "buffer" : 0,
            "byteLength" : 13440,
            "byteOffset" : 68324
        },
        {
            "buffer" : 0,
            "byteLength" : 8960,
            "byteOffset" : 81764
        },
        {
            "buffer" : 0,
            "byteLength" : 3300,
            "byteOffset" : 90724
        },
        {
            "buffer" : 0,
            "byteLength" : 13440,
            "byteOffset" : 94024
        },
        {
            "buffer" : 0,
            "byteLength" : 13440,
            "byteOffset" : 107464
        },
        {
            "buffer" : 0,
            "byteLength" : 8960,
            "byteOffset" : 120904
        },
        {
            "buffer" : 0,
            "byteLength" : 3300,
            "byteOffset" : 129864
        },
        {
            "buffer" : 0,
            "byteLength" : 2304,
            "byteOffset" : 133164
        },
        {
            "buffer" : 0,
            "byteLength" : 2304,
            "byteOffset" : 135468
        },
        {
            "buffer" : 0,
            "byteLength" : 1536,
            "byteOffset" : 137772
        },
        {
            "buffer" : 0,
            "byteLength" : 576,
            "byteOffset" : 139308
        }
    ],
    "buffers" : [
        {
            "byteLength" : 139884,
            "uri" : "fireplace01.bin"
        }
    ]
}
