{
    "asset" : {
        "generator" : "Khronos glTF Blender I/O v0.9.36",
        "version" : "2.0"
    },
    "scene" : 0,
    "scenes" : [
        {
            "name" : "Scene",
            "nodes" : [
                0,
                1,
                2
            ]
        }
    ],
    "nodes" : [
        {
            "name" : "Light",
            "rotation" : [
                0.16907575726509094,
                0.7558803558349609,
                -0.27217137813568115,
                0.570947527885437
            ],
            "translation" : [
                4.076245307922363,
                5.903861999511719,
                -1.0054539442062378
            ]
        },
        {
            "name" : "Camera",
            "rotation" : [
                0.483536034822464,
                0.33687159419059753,
                -0.20870360732078552,
                0.7804827094078064
            ],
            "translation" : [
                7.358891487121582,
                4.958309173583984,
                6.925790786743164
            ]
        },
        {
            "mesh" : 0,
            "name" : "door_Cube.030",
            "rotation" : [
                0.7071068286895752,
                0,
                0,
                0.7071067094802856
            ],
            "scale" : [
                0.5249391198158264,
                0.2417842298746109,
                0.18045029044151306
            ],
            "translation" : [
                0,
                0,
                0.03548133373260498
            ]
        }
    ],
    "materials" : [
        {
            "alphaMode" : "BLEND",
            "doubleSided" : true,
            "name" : "4CAF50",
            "pbrMetallicRoughness" : {
                "baseColorFactor" : [
                    0.2980389893054962,
                    0.6862750053405762,
                    0.313726007938385,
                    1
                ],
                "metallicFactor" : 1,
                "roughnessFactor" : 0.6732679605484009
            }
        },
        {
            "alphaMode" : "BLEND",
            "doubleSided" : true,
            "name" : "DD9944",
            "pbrMetallicRoughness" : {
                "baseColorFactor" : [
                    0.8666669726371765,
                    0.6000000238418579,
                    0.2666670083999634,
                    1
                ],
                "metallicFactor" : 1,
                "roughnessFactor" : 0.6732679605484009
            }
        },
        {
            "alphaMode" : "BLEND",
            "doubleSided" : true,
            "name" : "FFFFFF",
            "pbrMetallicRoughness" : {
                "baseColorFactor" : [
                    1,
                    1,
                    1,
                    1
                ],
                "metallicFactor" : 1,
                "roughnessFactor" : 0.6732679605484009
            }
        }
    ],
    "meshes" : [
        {
            "name" : "door_Cube.030",
            "primitives" : [
                {
                    "attributes" : {
                        "POSITION" : 0,
                        "NORMAL" : 1
                    },
                    "indices" : 2,
                    "material" : 0
                },
                {
                    "attributes" : {
                        "POSITION" : 3,
                        "NORMAL" : 4
                    },
                    "indices" : 5,
                    "material" : 1
                },
                {
                    "attributes" : {
                        "POSITION" : 6,
                        "NORMAL" : 7
                    },
                    "indices" : 8,
                    "material" : 2
                }
            ]
        }
    ],
    "accessors" : [
        {
            "bufferView" : 0,
            "componentType" : 5126,
            "count" : 384,
            "max" : [
                0.09146100282669067,
                2.2080090045928955,
                -0.012570999562740326
            ],
            "min" : [
                -0.2652130126953125,
                -2.2080090045928955,
                -9.973004341125488
            ],
            "type" : "VEC3"
        },
        {
            "bufferView" : 1,
            "componentType" : 5126,
            "count" : 384,
            "type" : "VEC3"
        },
        {
            "bufferView" : 2,
            "componentType" : 5123,
            "count" : 732,
            "type" : "SCALAR"
        },
        {
            "bufferView" : 3,
            "componentType" : 5126,
            "count" : 354,
            "max" : [
                0.39509400725364685,
                2.029006004333496,
                -4.205667018890381
            ],
            "min" : [
                -0.5752279758453369,
                1.5830509662628174,
                -5.271667957305908
            ],
            "type" : "VEC3"
        },
        {
            "bufferView" : 4,
            "componentType" : 5126,
            "count" : 354,
            "type" : "VEC3"
        },
        {
            "bufferView" : 5,
            "componentType" : 5123,
            "count" : 624,
            "type" : "SCALAR"
        },
        {
            "bufferView" : 6,
            "componentType" : 5126,
            "count" : 190,
            "max" : [
                0.07329700142145157,
                1.5567519664764404,
                -5.55182409286499
            ],
            "min" : [
                -0.2470490038394928,
                -1.5567519664764404,
                -9.374802589416504
            ],
            "type" : "VEC3"
        },
        {
            "bufferView" : 7,
            "componentType" : 5126,
            "count" : 190,
            "type" : "VEC3"
        },
        {
            "bufferView" : 8,
            "componentType" : 5123,
            "count" : 288,
            "type" : "SCALAR"
        }
    ],
    "bufferViews" : [
        {
            "buffer" : 0,
            "byteLength" : 4608,
            "byteOffset" : 0
        },
        {
            "buffer" : 0,
            "byteLength" : 4608,
            "byteOffset" : 4608
        },
        {
            "buffer" : 0,
            "byteLength" : 1464,
            "byteOffset" : 9216
        },
        {
            "buffer" : 0,
            "byteLength" : 4248,
            "byteOffset" : 10680
        },
        {
            "buffer" : 0,
            "byteLength" : 4248,
            "byteOffset" : 14928
        },
        {
            "buffer" : 0,
            "byteLength" : 1248,
            "byteOffset" : 19176
        },
        {
            "buffer" : 0,
            "byteLength" : 2280,
            "byteOffset" : 20424
        },
        {
            "buffer" : 0,
            "byteLength" : 2280,
            "byteOffset" : 22704
        },
        {
            "buffer" : 0,
            "byteLength" : 576,
            "byteOffset" : 24984
        }
    ],
    "buffers" : [
        {
            "byteLength" : 25560,
            "uri" : "door01.bin"
        }
    ]
}
