{
    "asset" : {
        "generator" : "Khronos glTF Blender I/O v0.9.36",
        "version" : "2.0"
    },
    "scene" : 0,
    "scenes" : [
        {
            "name" : "Scene",
            "nodes" : [
                0,
                1,
                2
            ]
        }
    ],
    "nodes" : [
        {
            "name" : "Light",
            "rotation" : [
                0.16907575726509094,
                0.7558803558349609,
                -0.27217137813568115,
                0.570947527885437
            ],
            "translation" : [
                4.076245307922363,
                5.903861999511719,
                -1.0054539442062378
            ]
        },
        {
            "name" : "Camera",
            "rotation" : [
                0.483536034822464,
                0.33687159419059753,
                -0.20870360732078552,
                0.7804827094078064
            ],
            "translation" : [
                7.358891487121582,
                4.958309173583984,
                6.925790786743164
            ]
        },
        {
            "mesh" : 0,
            "name" : "model",
            "rotation" : [
                0.7071068286895752,
                0,
                0,
                0.7071067094802856
            ],
            "scale" : [
                0.29059359431266785,
                0.24582356214523315,
                0.20978069305419922
            ],
            "translation" : [
                0.06370887160301208,
                0.3370152711868286,
                0.010678812861442566
            ]
        }
    ],
    "materials" : [
        {
            "doubleSided" : true,
            "name" : "mat21",
            "pbrMetallicRoughness" : {
                "baseColorFactor" : [
                    1,
                    1,
                    1,
                    1
                ],
                "metallicFactor" : 0,
                "roughnessFactor" : 1
            }
        },
        {
            "doubleSided" : true,
            "name" : "mat20",
            "pbrMetallicRoughness" : {
                "baseColorFactor" : [
                    0.4699999988079071,
                    0.33000001311302185,
                    0.2800000011920929,
                    1
                ],
                "metallicFactor" : 0,
                "roughnessFactor" : 1
            }
        },
        {
            "alphaMode" : "BLEND",
            "doubleSided" : true,
            "name" : "mat24",
            "pbrMetallicRoughness" : {
                "baseColorFactor" : [
                    0.9200000166893005,
                    0.949999988079071,
                    0.9399999976158142,
                    1
                ],
                "metallicFactor" : 0.7433333396911621,
                "roughnessFactor" : 0.4226497411727905
            }
        },
        {
            "doubleSided" : true,
            "name" : "mat22",
            "pbrMetallicRoughness" : {
                "baseColorFactor" : [
                    0.6200000047683716,
                    0.6200000047683716,
                    0.6200000047683716,
                    1
                ],
                "metallicFactor" : 0,
                "roughnessFactor" : 1
            }
        }
    ],
    "meshes" : [
        {
            "name" : "model",
            "primitives" : [
                {
                    "attributes" : {
                        "POSITION" : 0,
                        "NORMAL" : 1
                    },
                    "indices" : 2,
                    "material" : 0
                },
                {
                    "attributes" : {
                        "POSITION" : 3,
                        "NORMAL" : 4
                    },
                    "indices" : 5,
                    "material" : 1
                },
                {
                    "attributes" : {
                        "POSITION" : 6,
                        "NORMAL" : 7
                    },
                    "indices" : 8,
                    "material" : 2
                },
                {
                    "attributes" : {
                        "POSITION" : 9,
                        "NORMAL" : 10
                    },
                    "indices" : 11,
                    "material" : 3
                }
            ]
        }
    ],
    "accessors" : [
        {
            "bufferView" : 0,
            "componentType" : 5126,
            "count" : 288,
            "max" : [
                1.202023983001709,
                1.4968429803848267,
                -0.22205570340156555
            ],
            "min" : [
                -1.207977056503296,
                -0.9131566286087036,
                -0.2820568084716797
            ],
            "type" : "VEC3"
        },
        {
            "bufferView" : 1,
            "componentType" : 5126,
            "count" : 288,
            "type" : "VEC3"
        },
        {
            "bufferView" : 2,
            "componentType" : 5123,
            "count" : 528,
            "type" : "SCALAR"
        },
        {
            "bufferView" : 3,
            "componentType" : 5126,
            "count" : 272,
            "max" : [
                1.2345149517059326,
                1.5293350219726562,
                1.697950005531311
            ],
            "min" : [
                -1.2404780387878418,
                -0.9456611275672913,
                -0.27205508947372437
            ],
            "type" : "VEC3"
        },
        {
            "bufferView" : 4,
            "componentType" : 5126,
            "count" : 272,
            "type" : "VEC3"
        },
        {
            "bufferView" : 5,
            "componentType" : 5123,
            "count" : 408,
            "type" : "SCALAR"
        },
        {
            "bufferView" : 6,
            "componentType" : 5126,
            "count" : 24,
            "max" : [
                1.2120239734649658,
                1.5068429708480835,
                -0.28205591440200806
            ],
            "min" : [
                -1.2179770469665527,
                -0.923157274723053,
                -0.30205678939819336
            ],
            "type" : "VEC3"
        },
        {
            "bufferView" : 7,
            "componentType" : 5126,
            "count" : 24,
            "type" : "VEC3"
        },
        {
            "bufferView" : 8,
            "componentType" : 5123,
            "count" : 36,
            "type" : "SCALAR"
        },
        {
            "bufferView" : 9,
            "componentType" : 5126,
            "count" : 88,
            "max" : [
                0.14583979547023773,
                -0.8543416857719421,
                0.31320619583129883
            ],
            "min" : [
                -0.18416020274162292,
                -0.9614471197128296,
                0.2755742073059082
            ],
            "type" : "VEC3"
        },
        {
            "bufferView" : 10,
            "componentType" : 5126,
            "count" : 88,
            "type" : "VEC3"
        },
        {
            "bufferView" : 11,
            "componentType" : 5123,
            "count" : 132,
            "type" : "SCALAR"
        }
    ],
    "bufferViews" : [
        {
            "buffer" : 0,
            "byteLength" : 3456,
            "byteOffset" : 0
        },
        {
            "buffer" : 0,
            "byteLength" : 3456,
            "byteOffset" : 3456
        },
        {
            "buffer" : 0,
            "byteLength" : 1056,
            "byteOffset" : 6912
        },
        {
            "buffer" : 0,
            "byteLength" : 3264,
            "byteOffset" : 7968
        },
        {
            "buffer" : 0,
            "byteLength" : 3264,
            "byteOffset" : 11232
        },
        {
            "buffer" : 0,
            "byteLength" : 816,
            "byteOffset" : 14496
        },
        {
            "buffer" : 0,
            "byteLength" : 288,
            "byteOffset" : 15312
        },
        {
            "buffer" : 0,
            "byteLength" : 288,
            "byteOffset" : 15600
        },
        {
            "buffer" : 0,
            "byteLength" : 72,
            "byteOffset" : 15888
        },
        {
            "buffer" : 0,
            "byteLength" : 1056,
            "byteOffset" : 15960
        },
        {
            "buffer" : 0,
            "byteLength" : 1056,
            "byteOffset" : 17016
        },
        {
            "buffer" : 0,
            "byteLength" : 264,
            "byteOffset" : 18072
        }
    ],
    "buffers" : [
        {
            "byteLength" : 18336,
            "uri" : "cornertable01.bin"
        }
    ]
}
