{
    "asset" : {
        "generator" : "Khronos glTF Blender I/O v0.9.36",
        "version" : "2.0"
    },
    "scene" : 0,
    "scenes" : [
        {
            "name" : "Scene",
            "nodes" : [
                0,
                1,
                2,
                3,
                4,
                5
            ]
        }
    ],
    "nodes" : [
        {
            "name" : "Light",
            "rotation" : [
                0.16907575726509094,
                0.7558803558349609,
                -0.27217137813568115,
                0.570947527885437
            ],
            "translation" : [
                4.076245307922363,
                5.903861999511719,
                -1.0054539442062378
            ]
        },
        {
            "name" : "Camera",
            "rotation" : [
                0.483536034822464,
                0.33687159419059753,
                -0.20870360732078552,
                0.7804827094078064
            ],
            "translation" : [
                7.358891487121582,
                4.958309173583984,
                6.925790786743164
            ]
        },
        {
            "name" : "Light.001",
            "rotation" : [
                0.5232754945755005,
                0.34203392267227173,
                -0.7269423604011536,
                0.284166157245636
            ],
            "translation" : [
                4.076245307922363,
                5.903862476348877,
                -1.0054532289505005
            ]
        },
        {
            "name" : "Camera.001",
            "rotation" : [
                0.8937963247299194,
                0.09062855690717697,
                -0.3857799172401428,
                0.20997287333011627
            ],
            "translation" : [
                7.358891487121582,
                4.958308696746826,
                6.925792217254639
            ]
        },
        {
            "name" : "Air Conditioner 2 ",
            "rotation" : [
                1,
                0,
                0,
                -1.3435885648505064e-07
            ]
        },
        {
            "mesh" : 0,
            "name" : "piano_Cube.029",
            "rotation" : [
                0.7071068286895752,
                0,
                0,
                0.7071067094802856
            ],
            "scale" : [
                0.19930630922317505,
                0.15508213639259338,
                0.14263498783111572
            ],
            "translation" : [
                0,
                0.08760577440261841,
                0
            ]
        }
    ],
    "materials" : [
        {
            "alphaMode" : "BLEND",
            "doubleSided" : true,
            "name" : "1A1A1A",
            "pbrMetallicRoughness" : {
                "baseColorFactor" : [
                    0.10196100175380707,
                    0.10196100175380707,
                    0.10196100175380707,
                    1
                ],
                "metallicFactor" : 1,
                "roughnessFactor" : 0.6732679605484009
            }
        },
        {
            "alphaMode" : "BLEND",
            "doubleSided" : true,
            "name" : "FFFFFF",
            "pbrMetallicRoughness" : {
                "baseColorFactor" : [
                    1,
                    1,
                    1,
                    1
                ],
                "metallicFactor" : 1,
                "roughnessFactor" : 0.6732679605484009
            }
        },
        {
            "alphaMode" : "BLEND",
            "doubleSided" : true,
            "name" : "FFEB3B",
            "pbrMetallicRoughness" : {
                "baseColorFactor" : [
                    1,
                    0.9215689897537231,
                    0.23137299716472626,
                    1
                ],
                "metallicFactor" : 1,
                "roughnessFactor" : 0.6732679605484009
            }
        },
        {
            "alphaMode" : "BLEND",
            "doubleSided" : true,
            "name" : "DD9944",
            "pbrMetallicRoughness" : {
                "baseColorFactor" : [
                    0.8666669726371765,
                    0.6000000238418579,
                    0.2666670083999634,
                    1
                ],
                "metallicFactor" : 1,
                "roughnessFactor" : 0.6732679605484009
            }
        }
    ],
    "meshes" : [
        {
            "name" : "piano_Cube.029",
            "primitives" : [
                {
                    "attributes" : {
                        "POSITION" : 0,
                        "NORMAL" : 1
                    },
                    "indices" : 2,
                    "material" : 0
                },
                {
                    "attributes" : {
                        "POSITION" : 3,
                        "NORMAL" : 4
                    },
                    "indices" : 5,
                    "material" : 1
                },
                {
                    "attributes" : {
                        "POSITION" : 6,
                        "NORMAL" : 7
                    },
                    "indices" : 8,
                    "material" : 2
                },
                {
                    "attributes" : {
                        "POSITION" : 9,
                        "NORMAL" : 10
                    },
                    "indices" : 11,
                    "material" : 3
                }
            ]
        }
    ],
    "accessors" : [
        {
            "bufferView" : 0,
            "componentType" : 5126,
            "count" : 1369,
            "max" : [
                6.313681125640869,
                5.602211952209473,
                -0.41043099761009216
            ],
            "min" : [
                -6.367865085601807,
                -5,
                -10.529871940612793
            ],
            "type" : "VEC3"
        },
        {
            "bufferView" : 1,
            "componentType" : 5126,
            "count" : 1369,
            "type" : "VEC3"
        },
        {
            "bufferView" : 2,
            "componentType" : 5123,
            "count" : 2313,
            "type" : "SCALAR"
        },
        {
            "bufferView" : 3,
            "componentType" : 5126,
            "count" : 2112,
            "max" : [
                6.007562160491943,
                5.252499103546143,
                -4.976826190948486
            ],
            "min" : [
                4.971869945526123,
                -4.726985931396484,
                -5.244665145874023
            ],
            "type" : "VEC3"
        },
        {
            "bufferView" : 4,
            "componentType" : 5126,
            "count" : 2112,
            "type" : "VEC3"
        },
        {
            "bufferView" : 5,
            "componentType" : 5123,
            "count" : 3168,
            "type" : "SCALAR"
        },
        {
            "bufferView" : 6,
            "componentType" : 5126,
            "count" : 180,
            "max" : [
                5.385150909423828,
                4.7747697830200195,
                0.12335699796676636
            ],
            "min" : [
                -4.980007171630859,
                -4.233036994934082,
                -6.188388824462891
            ],
            "type" : "VEC3"
        },
        {
            "bufferView" : 7,
            "componentType" : 5126,
            "count" : 180,
            "type" : "VEC3"
        },
        {
            "bufferView" : 8,
            "componentType" : 5123,
            "count" : 270,
            "type" : "SCALAR"
        },
        {
            "bufferView" : 9,
            "componentType" : 5126,
            "count" : 17,
            "max" : [
                3.856020927429199,
                5.0461812019348145,
                -6.278613090515137
            ],
            "min" : [
                -5.8949360847473145,
                -4.26832389831543,
                -6.278613090515137
            ],
            "type" : "VEC3"
        },
        {
            "bufferView" : 10,
            "componentType" : 5126,
            "count" : 17,
            "type" : "VEC3"
        },
        {
            "bufferView" : 11,
            "componentType" : 5123,
            "count" : 57,
            "type" : "SCALAR"
        }
    ],
    "bufferViews" : [
        {
            "buffer" : 0,
            "byteLength" : 16428,
            "byteOffset" : 0
        },
        {
            "buffer" : 0,
            "byteLength" : 16428,
            "byteOffset" : 16428
        },
        {
            "buffer" : 0,
            "byteLength" : 4626,
            "byteOffset" : 32856
        },
        {
            "buffer" : 0,
            "byteLength" : 25344,
            "byteOffset" : 37484
        },
        {
            "buffer" : 0,
            "byteLength" : 25344,
            "byteOffset" : 62828
        },
        {
            "buffer" : 0,
            "byteLength" : 6336,
            "byteOffset" : 88172
        },
        {
            "buffer" : 0,
            "byteLength" : 2160,
            "byteOffset" : 94508
        },
        {
            "buffer" : 0,
            "byteLength" : 2160,
            "byteOffset" : 96668
        },
        {
            "buffer" : 0,
            "byteLength" : 540,
            "byteOffset" : 98828
        },
        {
            "buffer" : 0,
            "byteLength" : 204,
            "byteOffset" : 99368
        },
        {
            "buffer" : 0,
            "byteLength" : 204,
            "byteOffset" : 99572
        },
        {
            "buffer" : 0,
            "byteLength" : 114,
            "byteOffset" : 99776
        }
    ],
    "buffers" : [
        {
            "byteLength" : 99892,
            "uri" : "piano02.bin"
        }
    ]
}
