{
    "asset" : {
        "generator" : "Khronos glTF Blender I/O v0.9.36",
        "version" : "2.0"
    },
    "scene" : 0,
    "scenes" : [
        {
            "name" : "Scene",
            "nodes" : [
                0,
                1,
                2,
                3
            ]
        }
    ],
    "nodes" : [
        {
            "name" : "Light",
            "rotation" : [
                0.16907575726509094,
                0.7558803558349609,
                -0.27217137813568115,
                0.570947527885437
            ],
            "translation" : [
                4.076245307922363,
                5.903861999511719,
                -1.0054539442062378
            ]
        },
        {
            "name" : "Camera",
            "rotation" : [
                0.483536034822464,
                0.33687159419059753,
                -0.20870360732078552,
                0.7804827094078064
            ],
            "translation" : [
                7.358891487121582,
                4.958309173583984,
                6.925790786743164
            ]
        },
        {
            "name" : "Air Conditioner 2 ",
            "rotation" : [
                0.7071068286895752,
                0,
                0,
                0.7071067094802856
            ]
        },
        {
            "mesh" : 0,
            "name" : "Armchair_01",
            "rotation" : [
                0.7071068286895752,
                0,
                0,
                0.7071067094802856
            ],
            "scale" : [
                0.19094666838645935,
                0.20860756933689117,
                0.1272350698709488
            ],
            "translation" : [
                0.22746609151363373,
                0,
                0.08615340292453766
            ]
        }
    ],
    "materials" : [
        {
            "alphaMode" : "BLEND",
            "doubleSided" : true,
            "name" : "F44336",
            "pbrMetallicRoughness" : {
                "baseColorFactor" : [
                    0.9568629860877991,
                    0.2627449929714203,
                    0.21176500618457794,
                    1
                ],
                "metallicFactor" : 1,
                "roughnessFactor" : 0.6732679605484009
            }
        },
        {
            "alphaMode" : "BLEND",
            "doubleSided" : true,
            "name" : "795548",
            "pbrMetallicRoughness" : {
                "baseColorFactor" : [
                    0.4745100140571594,
                    0.33333298563957214,
                    0.282353013753891,
                    1
                ],
                "metallicFactor" : 1,
                "roughnessFactor" : 0.6732679605484009
            }
        }
    ],
    "meshes" : [
        {
            "name" : "Armchair_01",
            "primitives" : [
                {
                    "attributes" : {
                        "POSITION" : 0,
                        "NORMAL" : 1
                    },
                    "indices" : 2,
                    "material" : 0
                },
                {
                    "attributes" : {
                        "POSITION" : 3,
                        "NORMAL" : 4
                    },
                    "indices" : 5,
                    "material" : 1
                }
            ]
        }
    ],
    "accessors" : [
        {
            "bufferView" : 0,
            "componentType" : 5126,
            "count" : 1194,
            "max" : [
                2.4876880645751953,
                3.572206974029541,
                -0.7327100038528442
            ],
            "min" : [
                -3.835261106491089,
                -3.572206974029541,
                -10.047185897827148
            ],
            "type" : "VEC3"
        },
        {
            "bufferView" : 1,
            "componentType" : 5126,
            "count" : 1194,
            "type" : "VEC3"
        },
        {
            "bufferView" : 2,
            "componentType" : 5123,
            "count" : 2010,
            "type" : "SCALAR"
        },
        {
            "bufferView" : 3,
            "componentType" : 5126,
            "count" : 498,
            "max" : [
                2.3434178829193115,
                3.289335012435913,
                -0.05704300105571747
            ],
            "min" : [
                -3.434699058532715,
                -3.2893359661102295,
                -5.5248517990112305
            ],
            "type" : "VEC3"
        },
        {
            "bufferView" : 4,
            "componentType" : 5126,
            "count" : 498,
            "type" : "VEC3"
        },
        {
            "bufferView" : 5,
            "componentType" : 5123,
            "count" : 864,
            "type" : "SCALAR"
        }
    ],
    "bufferViews" : [
        {
            "buffer" : 0,
            "byteLength" : 14328,
            "byteOffset" : 0
        },
        {
            "buffer" : 0,
            "byteLength" : 14328,
            "byteOffset" : 14328
        },
        {
            "buffer" : 0,
            "byteLength" : 4020,
            "byteOffset" : 28656
        },
        {
            "buffer" : 0,
            "byteLength" : 5976,
            "byteOffset" : 32676
        },
        {
            "buffer" : 0,
            "byteLength" : 5976,
            "byteOffset" : 38652
        },
        {
            "buffer" : 0,
            "byteLength" : 1728,
            "byteOffset" : 44628
        }
    ],
    "buffers" : [
        {
            "byteLength" : 46356,
            "uri" : "armchair01.bin"
        }
    ]
}
