{
    "asset" : {
        "generator" : "Khronos glTF Blender I/O v0.9.36",
        "version" : "2.0"
    },
    "scene" : 0,
    "scenes" : [
        {
            "name" : "Scene",
            "nodes" : [
                0,
                1,
                2
            ]
        }
    ],
    "nodes" : [
        {
            "name" : "Light",
            "rotation" : [
                0.16907575726509094,
                0.7558803558349609,
                -0.27217137813568115,
                0.570947527885437
            ],
            "translation" : [
                4.076245307922363,
                5.903861999511719,
                -1.0054539442062378
            ]
        },
        {
            "name" : "Camera",
            "rotation" : [
                0.483536034822464,
                0.33687159419059753,
                -0.20870360732078552,
                0.7804827094078064
            ],
            "translation" : [
                7.358891487121582,
                4.958309173583984,
                6.925790786743164
            ]
        },
        {
            "mesh" : 0,
            "name" : "Door_188",
            "rotation" : [
                0.4989754855632782,
                0.5010223984718323,
                -0.5010225176811218,
                0.49897539615631104
            ],
            "scale" : [
                0.031074848026037216,
                0.040233906358480453,
                0.027481546625494957
            ],
            "translation" : [
                0,
                0,
                0.014640092849731445
            ]
        }
    ],
    "materials" : [
        {
            "doubleSided" : true,
            "name" : "_Porta01___Default",
            "pbrMetallicRoughness" : {
                "baseColorFactor" : [
                    0.0706000030040741,
                    0.03920000046491623,
                    0.007799999788403511,
                    1
                ],
                "metallicFactor" : 0,
                "roughnessFactor" : 0.8945907354354858
            }
        },
        {
            "doubleSided" : true,
            "name" : "_Porta02___Default",
            "pbrMetallicRoughness" : {
                "baseColorFactor" : [
                    1,
                    1,
                    1,
                    1
                ],
                "metallicFactor" : 0,
                "roughnessFactor" : 0.8945907354354858
            }
        },
        {
            "doubleSided" : true,
            "name" : "_Porta03___Default",
            "pbrMetallicRoughness" : {
                "baseColorFactor" : [
                    0.7529000043869019,
                    0.9412000179290771,
                    0,
                    1
                ],
                "metallicFactor" : 0,
                "roughnessFactor" : 0.8945907354354858
            }
        }
    ],
    "meshes" : [
        {
            "name" : "Door_188",
            "primitives" : [
                {
                    "attributes" : {
                        "POSITION" : 0,
                        "NORMAL" : 1,
                        "TEXCOORD_0" : 2
                    },
                    "indices" : 3,
                    "material" : 0
                },
                {
                    "attributes" : {
                        "POSITION" : 4,
                        "NORMAL" : 5,
                        "TEXCOORD_0" : 6
                    },
                    "indices" : 7,
                    "material" : 1
                },
                {
                    "attributes" : {
                        "POSITION" : 8,
                        "NORMAL" : 9,
                        "TEXCOORD_0" : 10
                    },
                    "indices" : 11,
                    "material" : 2
                }
            ]
        }
    ],
    "accessors" : [
        {
            "bufferView" : 0,
            "componentType" : 5126,
            "count" : 78,
            "max" : [
                18.77630043029785,
                1.6139999628067017,
                1.549399971961975
            ],
            "min" : [
                -18.501100540161133,
                -1.5738999843597412,
                -64.722900390625
            ],
            "type" : "VEC3"
        },
        {
            "bufferView" : 1,
            "componentType" : 5126,
            "count" : 78,
            "type" : "VEC3"
        },
        {
            "bufferView" : 2,
            "componentType" : 5126,
            "count" : 78,
            "type" : "VEC2"
        },
        {
            "bufferView" : 3,
            "componentType" : 5123,
            "count" : 132,
            "type" : "SCALAR"
        },
        {
            "bufferView" : 4,
            "componentType" : 5126,
            "count" : 385,
            "max" : [
                14.678299903869629,
                2.2799999713897705,
                0.19140000641345978
            ],
            "min" : [
                -14.751799583435059,
                -1.7929999828338623,
                -59.81700134277344
            ],
            "type" : "VEC3"
        },
        {
            "bufferView" : 5,
            "componentType" : 5126,
            "count" : 385,
            "type" : "VEC3"
        },
        {
            "bufferView" : 6,
            "componentType" : 5126,
            "count" : 385,
            "type" : "VEC2"
        },
        {
            "bufferView" : 7,
            "componentType" : 5123,
            "count" : 687,
            "type" : "SCALAR"
        },
        {
            "bufferView" : 8,
            "componentType" : 5126,
            "count" : 715,
            "max" : [
                14.455900192260742,
                3.253999948501587,
                -27.92569923400879
            ],
            "min" : [
                12.394499778747559,
                0.5292999744415283,
                -30.030799865722656
            ],
            "type" : "VEC3"
        },
        {
            "bufferView" : 9,
            "componentType" : 5126,
            "count" : 715,
            "type" : "VEC3"
        },
        {
            "bufferView" : 10,
            "componentType" : 5126,
            "count" : 715,
            "type" : "VEC2"
        },
        {
            "bufferView" : 11,
            "componentType" : 5123,
            "count" : 2508,
            "type" : "SCALAR"
        }
    ],
    "bufferViews" : [
        {
            "buffer" : 0,
            "byteLength" : 936,
            "byteOffset" : 0
        },
        {
            "buffer" : 0,
            "byteLength" : 936,
            "byteOffset" : 936
        },
        {
            "buffer" : 0,
            "byteLength" : 624,
            "byteOffset" : 1872
        },
        {
            "buffer" : 0,
            "byteLength" : 264,
            "byteOffset" : 2496
        },
        {
            "buffer" : 0,
            "byteLength" : 4620,
            "byteOffset" : 2760
        },
        {
            "buffer" : 0,
            "byteLength" : 4620,
            "byteOffset" : 7380
        },
        {
            "buffer" : 0,
            "byteLength" : 3080,
            "byteOffset" : 12000
        },
        {
            "buffer" : 0,
            "byteLength" : 1374,
            "byteOffset" : 15080
        },
        {
            "buffer" : 0,
            "byteLength" : 8580,
            "byteOffset" : 16456
        },
        {
            "buffer" : 0,
            "byteLength" : 8580,
            "byteOffset" : 25036
        },
        {
            "buffer" : 0,
            "byteLength" : 5720,
            "byteOffset" : 33616
        },
        {
            "buffer" : 0,
            "byteLength" : 5016,
            "byteOffset" : 39336
        }
    ],
    "buffers" : [
        {
            "byteLength" : 44352,
            "uri" : "door04.bin"
        }
    ]
}
