{
    "asset" : {
        "generator" : "Khronos glTF Blender I/O v0.9.36",
        "version" : "2.0"
    },
    "scene" : 0,
    "scenes" : [
        {
            "name" : "Scene",
            "nodes" : [
                0,
                1,
                2,
                3,
                4,
                5,
                6,
                7
            ]
        }
    ],
    "nodes" : [
        {
            "name" : "Light",
            "rotation" : [
                0.16907575726509094,
                0.7558803558349609,
                -0.27217137813568115,
                0.570947527885437
            ],
            "translation" : [
                4.076245307922363,
                5.903861999511719,
                -1.0054539442062378
            ]
        },
        {
            "name" : "Camera",
            "rotation" : [
                0.483536034822464,
                0.33687159419059753,
                -0.20870360732078552,
                0.7804827094078064
            ],
            "translation" : [
                7.358891487121582,
                4.958309173583984,
                6.925790786743164
            ]
        },
        {
            "name" : "Light.001",
            "rotation" : [
                0.5232754945755005,
                0.34203392267227173,
                -0.7269423604011536,
                0.284166157245636
            ],
            "translation" : [
                4.076245307922363,
                5.903862476348877,
                -1.0054532289505005
            ]
        },
        {
            "name" : "Camera.001",
            "rotation" : [
                0.8937963247299194,
                0.09062855690717697,
                -0.3857799172401428,
                0.20997287333011627
            ],
            "translation" : [
                7.358891487121582,
                4.958308696746826,
                6.925792217254639
            ]
        },
        {
            "name" : "Light.002",
            "rotation" : [
                -0.5709477066993713,
                0.2721712291240692,
                0.7558802962303162,
                0.16907566785812378
            ],
            "translation" : [
                4.076245307922363,
                5.903862953186035,
                -1.0054525136947632
            ]
        },
        {
            "name" : "Camera.002",
            "rotation" : [
                -0.7804825901985168,
                0.20870345830917358,
                0.33687177300453186,
                0.4835361838340759
            ],
            "translation" : [
                7.358891487121582,
                4.958308219909668,
                6.925793647766113
            ]
        },
        {
            "name" : "Air Conditioner 2 ",
            "rotation" : [
                -0.7071065902709961,
                0,
                0,
                0.7071069478988647
            ]
        },
        {
            "mesh" : 0,
            "name" : "SM_FirePlace_02",
            "rotation" : [
                0.7071068286895752,
                0,
                0,
                0.7071067094802856
            ],
            "scale" : [
                0.40779078006744385,
                0.2663749158382416,
                0.2515393793582916
            ]
        }
    ],
    "materials" : [
        {
            "alphaMode" : "BLEND",
            "doubleSided" : true,
            "name" : "lambert2SG",
            "pbrMetallicRoughness" : {
                "baseColorFactor" : [
                    0.10000000149011612,
                    0.05000000074505806,
                    0.019999999552965164,
                    1
                ],
                "metallicFactor" : 0,
                "roughnessFactor" : 1
            }
        },
        {
            "alphaMode" : "BLEND",
            "doubleSided" : true,
            "name" : "Wood1SG",
            "pbrMetallicRoughness" : {
                "baseColorFactor" : [
                    0.23999999463558197,
                    0.11999999731779099,
                    0.05000000074505806,
                    1
                ],
                "metallicFactor" : 0,
                "roughnessFactor" : 1
            }
        },
        {
            "alphaMode" : "BLEND",
            "doubleSided" : true,
            "name" : "lambert3SG",
            "pbrMetallicRoughness" : {
                "baseColorFactor" : [
                    0.019999999552965164,
                    0.019999999552965164,
                    0.019999999552965164,
                    1
                ],
                "metallicFactor" : 0,
                "roughnessFactor" : 1
            }
        },
        {
            "alphaMode" : "BLEND",
            "doubleSided" : true,
            "name" : "lambert4SG",
            "pbrMetallicRoughness" : {
                "baseColorFactor" : [
                    0.1599999964237213,
                    0.1599999964237213,
                    0.1599999964237213,
                    1
                ],
                "metallicFactor" : 0,
                "roughnessFactor" : 1
            }
        }
    ],
    "meshes" : [
        {
            "name" : "SM_FirePlace_02",
            "primitives" : [
                {
                    "attributes" : {
                        "POSITION" : 0,
                        "NORMAL" : 1,
                        "TEXCOORD_0" : 2
                    },
                    "indices" : 3,
                    "material" : 0
                },
                {
                    "attributes" : {
                        "POSITION" : 4,
                        "NORMAL" : 5,
                        "TEXCOORD_0" : 6
                    },
                    "indices" : 7,
                    "material" : 1
                },
                {
                    "attributes" : {
                        "POSITION" : 8,
                        "NORMAL" : 9,
                        "TEXCOORD_0" : 10
                    },
                    "indices" : 11,
                    "material" : 2
                },
                {
                    "attributes" : {
                        "POSITION" : 12,
                        "NORMAL" : 13,
                        "TEXCOORD_0" : 14
                    },
                    "indices" : 15,
                    "material" : 3
                }
            ]
        }
    ],
    "accessors" : [
        {
            "bufferView" : 0,
            "componentType" : 5126,
            "count" : 356,
            "max" : [
                0.7605929970741272,
                1.8622419834136963,
                0
            ],
            "min" : [
                -0.18940700590610504,
                -1.8622419834136963,
                -2.9288671016693115
            ],
            "type" : "VEC3"
        },
        {
            "bufferView" : 1,
            "componentType" : 5126,
            "count" : 356,
            "type" : "VEC3"
        },
        {
            "bufferView" : 2,
            "componentType" : 5126,
            "count" : 356,
            "type" : "VEC2"
        },
        {
            "bufferView" : 3,
            "componentType" : 5123,
            "count" : 768,
            "type" : "SCALAR"
        },
        {
            "bufferView" : 4,
            "componentType" : 5126,
            "count" : 380,
            "max" : [
                0.8041840195655823,
                1.6908819675445557,
                0
            ],
            "min" : [
                0.6317480206489563,
                -1.6908819675445557,
                -2.717116117477417
            ],
            "type" : "VEC3"
        },
        {
            "bufferView" : 5,
            "componentType" : 5126,
            "count" : 380,
            "type" : "VEC3"
        },
        {
            "bufferView" : 6,
            "componentType" : 5126,
            "count" : 380,
            "type" : "VEC2"
        },
        {
            "bufferView" : 7,
            "componentType" : 5123,
            "count" : 900,
            "type" : "SCALAR"
        },
        {
            "bufferView" : 8,
            "componentType" : 5126,
            "count" : 24,
            "max" : [
                0.3820570111274719,
                0.8550699949264526,
                0
            ],
            "min" : [
                0,
                -0.8550699949264526,
                -1.974181056022644
            ],
            "type" : "VEC3"
        },
        {
            "bufferView" : 9,
            "componentType" : 5126,
            "count" : 24,
            "type" : "VEC3"
        },
        {
            "bufferView" : 10,
            "componentType" : 5126,
            "count" : 24,
            "type" : "VEC2"
        },
        {
            "bufferView" : 11,
            "componentType" : 5123,
            "count" : 48,
            "type" : "SCALAR"
        },
        {
            "bufferView" : 12,
            "componentType" : 5126,
            "count" : 240,
            "max" : [
                0.6522250175476074,
                0.866258978843689,
                0.00955200009047985
            ],
            "min" : [
                0.4620400071144104,
                -0.866258978843689,
                -0.9908789992332458
            ],
            "type" : "VEC3"
        },
        {
            "bufferView" : 13,
            "componentType" : 5126,
            "count" : 240,
            "type" : "VEC3"
        },
        {
            "bufferView" : 14,
            "componentType" : 5126,
            "count" : 240,
            "type" : "VEC2"
        },
        {
            "bufferView" : 15,
            "componentType" : 5123,
            "count" : 456,
            "type" : "SCALAR"
        }
    ],
    "bufferViews" : [
        {
            "buffer" : 0,
            "byteLength" : 4272,
            "byteOffset" : 0
        },
        {
            "buffer" : 0,
            "byteLength" : 4272,
            "byteOffset" : 4272
        },
        {
            "buffer" : 0,
            "byteLength" : 2848,
            "byteOffset" : 8544
        },
        {
            "buffer" : 0,
            "byteLength" : 1536,
            "byteOffset" : 11392
        },
        {
            "buffer" : 0,
            "byteLength" : 4560,
            "byteOffset" : 12928
        },
        {
            "buffer" : 0,
            "byteLength" : 4560,
            "byteOffset" : 17488
        },
        {
            "buffer" : 0,
            "byteLength" : 3040,
            "byteOffset" : 22048
        },
        {
            "buffer" : 0,
            "byteLength" : 1800,
            "byteOffset" : 25088
        },
        {
            "buffer" : 0,
            "byteLength" : 288,
            "byteOffset" : 26888
        },
        {
            "buffer" : 0,
            "byteLength" : 288,
            "byteOffset" : 27176
        },
        {
            "buffer" : 0,
            "byteLength" : 192,
            "byteOffset" : 27464
        },
        {
            "buffer" : 0,
            "byteLength" : 96,
            "byteOffset" : 27656
        },
        {
            "buffer" : 0,
            "byteLength" : 2880,
            "byteOffset" : 27752
        },
        {
            "buffer" : 0,
            "byteLength" : 2880,
            "byteOffset" : 30632
        },
        {
            "buffer" : 0,
            "byteLength" : 1920,
            "byteOffset" : 33512
        },
        {
            "buffer" : 0,
            "byteLength" : 912,
            "byteOffset" : 35432
        }
    ],
    "buffers" : [
        {
            "byteLength" : 36344,
            "uri" : "fireplace02.bin"
        }
    ]
}
