{
    "asset" : {
        "generator" : "Khronos glTF Blender I/O v0.9.36",
        "version" : "2.0"
    },
    "scene" : 0,
    "scenes" : [
        {
            "name" : "Scene",
            "nodes" : [
                0,
                1,
                2,
                3
            ]
        }
    ],
    "nodes" : [
        {
            "name" : "Light",
            "rotation" : [
                0.16907575726509094,
                0.7558803558349609,
                -0.27217137813568115,
                0.570947527885437
            ],
            "translation" : [
                4.076245307922363,
                5.903861999511719,
                -1.0054539442062378
            ]
        },
        {
            "name" : "Camera",
            "rotation" : [
                0.483536034822464,
                0.33687159419059753,
                -0.20870360732078552,
                0.7804827094078064
            ],
            "translation" : [
                7.358891487121582,
                4.958309173583984,
                6.925790786743164
            ]
        },
        {
            "name" : "Air Conditioner 2 ",
            "rotation" : [
                0.7071068286895752,
                0,
                0,
                0.7071067094802856
            ]
        },
        {
            "mesh" : 0,
            "name" : "Bed_01_Cube.000",
            "rotation" : [
                0.7071068286895752,
                0,
                0,
                0.7071067094802856
            ],
            "scale" : [
                0.08760508894920349,
                0.08219752460718155,
                0.06455797702074051
            ],
            "translation" : [
                0,
                0,
                -0.2790732979774475
            ]
        }
    ],
    "materials" : [
        {
            "alphaMode" : "BLEND",
            "doubleSided" : true,
            "name" : "039BE5.001",
            "pbrMetallicRoughness" : {
                "baseColorFactor" : [
                    0.01176500041037798,
                    0.6078429818153381,
                    0.8980389833450317,
                    1
                ],
                "metallicFactor" : 1,
                "roughnessFactor" : 0.6732679605484009
            }
        },
        {
            "alphaMode" : "BLEND",
            "doubleSided" : true,
            "name" : "FFFFFF.002",
            "pbrMetallicRoughness" : {
                "baseColorFactor" : [
                    1,
                    1,
                    1,
                    1
                ],
                "metallicFactor" : 1,
                "roughnessFactor" : 0.6732679605484009
            }
        },
        {
            "alphaMode" : "BLEND",
            "doubleSided" : true,
            "name" : "795548.002",
            "pbrMetallicRoughness" : {
                "baseColorFactor" : [
                    0.4745100140571594,
                    0.33333298563957214,
                    0.282353013753891,
                    1
                ],
                "metallicFactor" : 1,
                "roughnessFactor" : 0.6732679605484009
            }
        },
        {
            "alphaMode" : "BLEND",
            "doubleSided" : true,
            "name" : "009688.001",
            "pbrMetallicRoughness" : {
                "baseColorFactor" : [
                    0,
                    0.5882350206375122,
                    0.5333330035209656,
                    1
                ],
                "metallicFactor" : 1,
                "roughnessFactor" : 0.6732679605484009
            }
        }
    ],
    "meshes" : [
        {
            "name" : "Bed_01_Cube.000",
            "primitives" : [
                {
                    "attributes" : {
                        "POSITION" : 0,
                        "NORMAL" : 1
                    },
                    "indices" : 2,
                    "material" : 0
                },
                {
                    "attributes" : {
                        "POSITION" : 3,
                        "NORMAL" : 4
                    },
                    "indices" : 5,
                    "material" : 1
                },
                {
                    "attributes" : {
                        "POSITION" : 6,
                        "NORMAL" : 7
                    },
                    "indices" : 8,
                    "material" : 2
                },
                {
                    "attributes" : {
                        "POSITION" : 9,
                        "NORMAL" : 10
                    },
                    "indices" : 11,
                    "material" : 3
                }
            ]
        }
    ],
    "accessors" : [
        {
            "bufferView" : 0,
            "componentType" : 5126,
            "count" : 24,
            "max" : [
                5.763645172119141,
                13.603898048400879,
                -0.47918701171875
            ],
            "min" : [
                -5.763644218444824,
                -2.5315589904785156,
                -6.207213878631592
            ],
            "type" : "VEC3"
        },
        {
            "bufferView" : 1,
            "componentType" : 5126,
            "count" : 24,
            "type" : "VEC3"
        },
        {
            "bufferView" : 2,
            "componentType" : 5123,
            "count" : 42,
            "type" : "SCALAR"
        },
        {
            "bufferView" : 3,
            "componentType" : 5126,
            "count" : 152,
            "max" : [
                5.065252780914307,
                13.733139038085938,
                -3.2933590412139893
            ],
            "min" : [
                -5.065250873565674,
                -5.230277061462402,
                -9.638715744018555
            ],
            "type" : "VEC3"
        },
        {
            "bufferView" : 4,
            "componentType" : 5126,
            "count" : 152,
            "type" : "VEC3"
        },
        {
            "bufferView" : 5,
            "componentType" : 5123,
            "count" : 228,
            "type" : "SCALAR"
        },
        {
            "bufferView" : 6,
            "componentType" : 5126,
            "count" : 278,
            "max" : [
                5.860694885253906,
                14.89573860168457,
                0.008929000236093998
            ],
            "min" : [
                -5.860692024230957,
                -6.264330863952637,
                -9.928861618041992
            ],
            "type" : "VEC3"
        },
        {
            "bufferView" : 7,
            "componentType" : 5126,
            "count" : 278,
            "type" : "VEC3"
        },
        {
            "bufferView" : 8,
            "componentType" : 5123,
            "count" : 684,
            "type" : "SCALAR"
        },
        {
            "bufferView" : 9,
            "componentType" : 5126,
            "count" : 42,
            "max" : [
                5.989607810974121,
                -0.0833899974822998,
                -0.47918701171875
            ],
            "min" : [
                -5.9896087646484375,
                -2.5315589904785156,
                -6.259212017059326
            ],
            "type" : "VEC3"
        },
        {
            "bufferView" : 10,
            "componentType" : 5126,
            "count" : 42,
            "type" : "VEC3"
        },
        {
            "bufferView" : 11,
            "componentType" : 5123,
            "count" : 84,
            "type" : "SCALAR"
        }
    ],
    "bufferViews" : [
        {
            "buffer" : 0,
            "byteLength" : 288,
            "byteOffset" : 0
        },
        {
            "buffer" : 0,
            "byteLength" : 288,
            "byteOffset" : 288
        },
        {
            "buffer" : 0,
            "byteLength" : 84,
            "byteOffset" : 576
        },
        {
            "buffer" : 0,
            "byteLength" : 1824,
            "byteOffset" : 660
        },
        {
            "buffer" : 0,
            "byteLength" : 1824,
            "byteOffset" : 2484
        },
        {
            "buffer" : 0,
            "byteLength" : 456,
            "byteOffset" : 4308
        },
        {
            "buffer" : 0,
            "byteLength" : 3336,
            "byteOffset" : 4764
        },
        {
            "buffer" : 0,
            "byteLength" : 3336,
            "byteOffset" : 8100
        },
        {
            "buffer" : 0,
            "byteLength" : 1368,
            "byteOffset" : 11436
        },
        {
            "buffer" : 0,
            "byteLength" : 504,
            "byteOffset" : 12804
        },
        {
            "buffer" : 0,
            "byteLength" : 504,
            "byteOffset" : 13308
        },
        {
            "buffer" : 0,
            "byteLength" : 168,
            "byteOffset" : 13812
        }
    ],
    "buffers" : [
        {
            "byteLength" : 13980,
            "uri" : "bed01.bin"
        }
    ]
}
